Patient4_TMGait_0pt6_02_left_11_GRF.mot
version=1
nRows=32
nColumns=19
inDegrees=no
endheader
time	F1x	F1y	F1z	M1x	M1y	M1z	F2x	F2y	F2z	M2x	M2y	M2z	EC1x	EC1y	EC1z	EC2x	EC2y	EC2z
13.57	-10.1687	-3.5954	1.6035	-1.1409	-2.9599	-2.1571	-10.9638	711.0591	-38.1508	305.466	40.8118	656.0231	-0.0592	0.0182	-0.0073	-0.0462	0.0165	0.9585
13.5816	-6.8555	-1.6993	1.1355	-1.0359	-2.0828	-0.68706	-10.9346	711.2152	-40.393	306.1158	42.1402	655.605	-0.0592	0.0182	-0.0073	-0.0462	0.0165	0.9585
13.5933	-4.083	-0.052513	0.71164	-0.9544	-1.3195	0.59304	-10.5691	712.9301	-42.2042	307.2761	42.9995	655.8939	-0.0592	0.0182	-0.0073	-0.0462	0.0165	0.9585
13.6049	-1.9916	1.2483	0.37129	-0.9019	-0.72219	1.6102	-9.8743	716.5039	-43.499	309.0436	43.3481	657.1563	-0.0592	0.0182	-0.0073	-0.0462	0.0165	0.9585
13.6166	-0.56723	2.2111	0.11481	-0.87905	-0.29024	2.3794	-8.8771	722.002	-44.2993	311.4666	43.2205	659.5043	-0.0592	0.0182	-0.0073	-0.0462	0.0165	0.9585
13.6282	0.2898	2.8722	-0.058949	-0.87784	-0.010898	2.9174	-7.6298	729.3129	-44.717	314.5362	42.7288	662.9343	-0.0592	0.0182	-0.0073	-0.0462	0.0165	0.9585
13.6399	0.69695	3.2875	-0.16662	-0.8894	0.14246	3.2609	-6.1832	738.1216	-44.8461	318.1676	41.9641	667.2652	-0.0592	0.0182	-0.0073	-0.0462	0.0165	0.9585
13.6515	0.78995	3.4784	-0.21928	-0.89482	0.19557	3.4061	-4.6132	747.9233	-44.7868	322.1862	41.0349	672.1648	-0.0592	0.0182	-0.0073	-0.0462	0.0165	0.9585
13.6631	0.66149	3.4486	-0.23658	-0.87113	0.17168	3.349	-2.9943	757.9738	-44.5877	326.3089	40.0032	677.0693	-0.0592	0.0182	-0.0073	-0.0462	0.0165	0.9585
13.6748	0.40019	3.1576	-0.23269	-0.78663	0.09709	3.032	-1.3933	767.3585	-44.2698	330.1639	38.9065	681.275	-0.0592	0.0182	-0.0073	-0.0462	0.0165	0.9585
13.6864	0.059238	2.5388	-0.21729	-0.60576	-0.011009	2.3973	0.15788	775.0758	-43.838	333.3317	37.7595	683.9823	-0.0592	0.0182	-0.0073	-0.0462	0.0165	0.9585
13.6981	-0.30847	1.5146	-0.20102	-0.29451	-0.1282	1.3512	1.6348	780.1501	-43.2966	335.3948	36.567	684.4108	-0.0592	0.0182	-0.0073	-0.0462	0.0165	0.9585
13.7097	-0.65276	0.022992	-0.19291	0.17476	-0.23035	-0.16703	3.0413	781.7437	-42.6883	335.99	35.3615	681.8865	-0.0592	0.0182	-0.0073	-0.0462	0.0165	0.9585
13.7214	-0.89377	-1.9498	-0.20449	0.81168	-0.27849	-2.1889	4.3844	779.3211	-42.0724	334.8838	34.1865	675.9758	-0.0592	0.0182	-0.0073	-0.0462	0.0165	0.9585
13.733	-0.94693	-4.314	-0.24853	1.5893	-0.22881	-4.6288	5.7062	772.8394	-41.537	332.0524	33.101	666.6475	-0.0592	0.0182	-0.0073	-0.0462	0.0165	0.9585
13.7446	-0.676	-6.8255	-0.32621	2.4235	-0.031257	-7.2385	7.051	762.8269	-41.1606	327.7182	32.1476	654.344	-0.0592	0.0182	-0.0073	-0.0462	0.0165	0.9585
13.7563	0.072978	-8.9801	-0.43548	3.1391	0.36048	-9.4881	8.4847	750.2872	-41.0037	322.31	31.3495	639.9126	-0.0592	0.0182	-0.0073	-0.0462	0.0165	0.9585
13.7679	1.4857	-9.9533	-0.54955	3.4461	0.97954	-10.5208	10.0641	736.5036	-41.0875	316.3778	30.7	624.431	-0.0592	0.0182	-0.0073	-0.0462	0.0165	0.9585
13.7796	3.7486	-8.4826	-0.64552	2.9081	1.8615	-9.0105	11.844	722.7757	-41.3983	310.483	30.1635	608.9806	-0.0592	0.0182	-0.0073	-0.0462	0.0165	0.9585
13.7912	6.9901	-2.8583	-0.66261	0.93751	2.988	-3.1799	13.8741	710.2047	-41.8896	305.1025	29.6781	594.4856	-0.0592	0.0182	-0.0073	-0.0462	0.0165	0.9585
13.8029	11.1914	9.0005	-0.53085	-3.1801	4.2797	9.144	16.1953	699.4852	-42.4817	300.5399	29.155	581.5426	-0.0592	0.0182	-0.0073	-0.0462	0.0165	0.9585
13.8145	16.0937	29.3281	-0.14648	-10.207	5.5409	30.2888	18.8313	690.7768	-43.0532	296.8649	28.4809	570.3254	-0.0592	0.0182	-0.0073	-0.0462	0.0165	0.9585
13.8261	21.0061	60.0503	0.60267	-20.7957	6.4202	62.2886	21.7675	683.649	-43.4542	293.8924	27.5325	560.5478	-0.0592	0.0182	-0.0073	-0.0462	0.0165	0.9585
13.8378	24.6627	102.037	1.8409	-35.2309	6.3534	106.099	24.9614	677.1084	-43.5224	291.1958	26.1896	551.4799	-0.0592	0.0182	-0.0073	-0.0462	0.0165	0.9585
13.8494	25.1491	154.0942	3.7031	-53.0893	4.5529	160.5542	28.3125	669.7384	-43.0859	288.1669	24.3491	542.063	-0.0592	0.0182	-0.0073	-0.0462	0.0165	0.9585
13.8611	20.796	212.515	6.3169	-73.0752	0.33154	221.8632	31.6793	659.9471	-41.9948	284.1243	21.9519	531.0901	-0.0592	0.0182	-0.0073	-0.0462	0.0165	0.9585
13.8727	11.6723	271.1059	9.8254	-93.0406	-6.3952	283.5487	34.8977	646.2825	-40.1528	278.4452	18.9978	517.4537	-0.0592	0.0182	-0.0073	-0.0462	0.0165	0.9585
13.8844	0.45755	323.3534	14.3713	-110.7599	-14.847	338.5593	37.8399	627.6952	-37.5847	270.6756	15.5785	500.334	-0.0592	0.0182	-0.0073	-0.0462	0.0165	0.9585
13.896	-10.4318	366.0303	19.4098	-125.1745	-23.6384	383.1359	40.4395	603.7285	-34.4498	260.6007	11.8658	479.3611	-0.0592	0.0182	-0.0073	-0.0462	0.0165	0.9585
13.9076	-19.5436	399.5403	24.031	-136.4954	-31.3365	417.4414	42.6494	574.44	-31.0268	248.2152	8.1009	454.5584	-0.0592	0.0182	-0.0073	-0.0462	0.0165	0.9585
13.9193	-26.1079	425.8884	27.5019	-145.4827	-36.9347	443.5599	44.4552	540.1901	-27.6196	233.6406	4.5255	426.1643	-0.0592	0.0182	-0.0073	-0.0462	0.0165	0.9585
13.9309	-30.0485	447.2462	29.5616	-152.9221	-40.1482	463.8131	45.7758	501.5067	-24.4032	217.0784	1.2995	394.5667	-0.0592	0.0182	-0.0073	-0.0462	0.0165	0.9585
